<?xml version="1.0" encoding="UTF-8" standalone="no"?>
<!-- Created with Inkscape (http://www.inkscape.org/) -->

<svg
   xmlns:dc="http://purl.org/dc/elements/1.1/"
   xmlns:cc="http://creativecommons.org/ns#"
   xmlns:rdf="http://www.w3.org/1999/02/22-rdf-syntax-ns#"
   xmlns:svg="http://www.w3.org/2000/svg"
   xmlns="http://www.w3.org/2000/svg"
   xmlns:sodipodi="http://sodipodi.sourceforge.net/DTD/sodipodi-0.dtd"
   xmlns:inkscape="http://www.inkscape.org/namespaces/inkscape"
   width="744.09448819"
   height="1052.3622047"
   id="svg2"
   version="1.1"
   inkscape:version="0.48.4 r9939"
   sodipodi:docname="breadlogo0.1.svg"
   inkscape:export-filename="/home/will/Pictures/breadlogo0_1.png"
   inkscape:export-xdpi="90"
   inkscape:export-ydpi="90">
  <defs
     id="defs4">
    <filter
       id="filter3886"
       inkscape:label="Torn edges"
       inkscape:menu="Distort"
       inkscape:menu-tooltip="Displace the outside of shapes and pictures without altering their content"
       height="1.4"
       y="-0.2"
       width="1.4"
       x="-0.2"
       color-interpolation-filters="sRGB">
      <feTurbulence
         id="feTurbulence3888"
         baseFrequency="0.0037037037037037038"
         numOctaves="1"
         type="turbulence"
         result="result91" />
      <feDisplacementMap
         id="feDisplacementMap3890"
         in2="result91"
         scale="25"
         result="result5"
         xChannelSelector="R"
         in="SourceGraphic" />
      <feComposite
         id="feComposite3892"
         in2="result5"
         in="SourceGraphic"
         operator="atop" />
    </filter>
  </defs>
  <sodipodi:namedview
     id="base"
     pagecolor="#ffffff"
     bordercolor="#666666"
     borderopacity="1.0"
     inkscape:pageopacity="0.0"
     inkscape:pageshadow="2"
     inkscape:zoom="0.98994949"
     inkscape:cx="262.27112"
     inkscape:cy="553.26171"
     inkscape:document-units="px"
     inkscape:current-layer="layer3"
     showgrid="false"
     showguides="true"
     inkscape:guide-bbox="true"
     inkscape:window-width="1920"
     inkscape:window-height="1021"
     inkscape:window-x="1920"
     inkscape:window-y="27"
     inkscape:window-maximized="1" />
  <metadata
     id="metadata7">
    <rdf:RDF>
      <cc:Work
         rdf:about="">
        <dc:format>image/svg+xml</dc:format>
        <dc:type
           rdf:resource="http://purl.org/dc/dcmitype/StillImage" />
        <dc:title></dc:title>
      </cc:Work>
    </rdf:RDF>
  </metadata>
  <g
     inkscape:groupmode="layer"
     id="layer2"
     inkscape:label="Bread">
    <path
       style="fill:#ffb380;stroke:#000000;stroke-width:8.09999999999999787;stroke-linecap:round;stroke-linejoin:round;stroke-opacity:1;stroke-miterlimit:4;stroke-dasharray:none"
       d="m 78.035714,430.93361 c -1.428571,12.67857 2.142858,3.03571 -1.071428,11.60714 -3.214286,8.57143 -0.535714,21.25 -2.678572,26.42857 -2.142857,5.17858 11.324714,44.72902 12.334867,57.861 1.010152,13.13198 24.496199,59.85154 27.526659,62.62946 3.03046,2.77792 32.82996,12.12183 44.19417,9.59645 11.36422,-2.52538 48.23479,0.50507 48.23479,-5.05077 31.31472,0.50508 21.2132,8.5863 31.56726,0.50508 10.35407,-8.08122 60.86169,5.05076 60.86169,5.05076 0,0 37.88072,2.52539 51.01271,-9.59645 24.4962,6.566 14.14213,7.07107 24.74873,6.31346 10.60661,-0.75762 29.29443,7.3236 53.28555,3.03046 23.99112,-4.29315 37.62818,3.28299 37.62818,3.28299 0,0 26.26397,-1.26269 34.34519,-1.26269 8.08122,0 31.06219,4.29315 32.07234,-0.75761 1.01016,-5.05077 114.39978,13.13198 121.47085,-0.25254 7.07107,-13.38452 8.83883,-45.45687 11.11168,-48.23479 2.27284,-2.77792 6.31345,-27.02158 4.29314,-32.07234 -2.0203,-5.05076 8.08122,-73.23606 3.283,-75.76144 -4.79822,-2.52538 -57.97081,-73.31674 -57.97081,-73.31674 z"
       id="path3053"
       inkscape:connector-curvature="0" />
    <g
       style="font-size:40px;font-style:normal;font-weight:normal;line-height:0%;letter-spacing:0px;word-spacing:0px;fill:#aa4400;fill-opacity:1;stroke:none;filter:url(#filter3886);font-family:Sans"
       id="text3844"
       transform="matrix(2.5120749,0,0,2.5120749,-575.58976,-768.22351)">
      <path
         d="m 263.04752,475.68445 15.04687,0 c 3.23435,5e-5 6.07029,0.23442 8.50781,0.70312 2.43747,0.44537 4.47653,1.18365 6.11719,2.21485 1.64059,1.00786 2.87106,2.34379 3.69141,4.00781 0.84371,1.64067 1.26558,3.66801 1.26562,6.08203 -4e-5,1.45316 -0.17582,2.81254 -0.52734,4.07813 -0.3516,1.26565 -0.86723,2.37893 -1.54688,3.33984 -0.67972,0.96097 -1.51175,1.76956 -2.49609,2.42578 -0.96097,0.63284 -2.07425,1.05472 -3.33984,1.26563 l 0,0.35156 c 1.28902,0.28127 2.48434,0.69143 3.58593,1.23047 1.12497,0.51565 2.09762,1.24221 2.91797,2.17968 0.84371,0.91409 1.49996,2.07424 1.96875,3.48047 0.49215,1.40627 0.73824,3.11721 0.73828,5.13282 -4e-5,2.34376 -0.41019,4.44141 -1.23047,6.29296 -0.82035,1.82814 -2.00394,3.38673 -3.55078,4.67579 -1.52347,1.26562 -3.38675,2.23828 -5.58984,2.91796 -2.17972,0.67969 -4.65237,1.01954 -7.41797,1.01954 l -18.14062,0 0,-51.39844 m 10.89843,20.35547 5.66016,0 c 1.35935,3e-5 2.49607,-0.11716 3.41016,-0.35157 0.91403,-0.25778 1.65231,-0.63278 2.21484,-1.125 0.56247,-0.49215 0.96091,-1.10152 1.19531,-1.82812 0.25778,-0.74997 0.38669,-1.61715 0.38672,-2.60156 -3e-5,-1.96871 -0.62112,-3.37496 -1.86328,-4.21875 -1.21878,-0.86715 -3.16409,-1.30074 -5.83594,-1.30078 l -5.16797,0 0,11.42578 m 0,8.64843 0,13.39454 6.39844,0 c 1.42966,0 2.62497,-0.16406 3.58594,-0.49219 0.98435,-0.32812 1.7695,-0.79687 2.35547,-1.40625 0.60934,-0.60937 1.04294,-1.34765 1.30078,-2.21485 0.25778,-0.86717 0.38669,-1.82811 0.38672,-2.88281 -3e-5,-0.96092 -0.12894,-1.82811 -0.38672,-2.60156 -0.25784,-0.79686 -0.70316,-1.47654 -1.33594,-2.03906 -0.6094,-0.56248 -1.418,-0.99608 -2.42578,-1.30078 -1.00784,-0.30467 -2.26174,-0.45701 -3.76172,-0.45704 l -6.11719,0"
         style="font-size:72px;font-variant:normal;font-weight:bold;font-stretch:normal;line-height:0%;font-family:Droid Sans;-inkscape-font-specification:Droid Sans Bold;fill:#aa4400"
         id="path3897"
         inkscape:connector-curvature="0" />
      <path
         d="m 320.21158,498.50085 2.95312,0 c 3.02342,3e-5 5.19138,-0.59762 6.50391,-1.79296 1.31247,-1.21872 1.96872,-2.99997 1.96875,-5.34375 -3e-5,-2.43747 -0.70315,-4.17184 -2.10938,-5.20313 -1.40627,-1.03121 -3.58596,-1.54683 -6.53906,-1.54687 l -2.77734,0 0,13.88671 m 0,8.85938 0,19.72266 -10.89844,0 0,-51.39844 14.0625,0 c 6.58591,5e-5 11.44919,1.27739 14.58984,3.83203 3.14059,2.53129 4.7109,6.38676 4.71094,11.56641 -4e-5,1.75784 -0.23441,3.35159 -0.70312,4.78125 -0.46879,1.42971 -1.1016,2.70706 -1.89844,3.83203 -0.77347,1.10159 -1.67582,2.07424 -2.70703,2.91797 -1.00785,0.82033 -2.07425,1.51174 -3.19922,2.07421 2.60153,4.1719 4.93356,7.89846 6.99609,11.17969 0.89059,1.40626 1.74606,2.77735 2.56641,4.11328 0.84371,1.33595 1.59371,2.53126 2.25,3.58594 0.65621,1.05469 1.19527,1.89844 1.61719,2.53125 l 0.59765,0.98438 -12.09375,0 -11.14453,-19.72266 -4.74609,0"
         style="font-size:72px;font-variant:normal;font-weight:bold;font-stretch:normal;line-height:0%;font-family:Droid Sans;-inkscape-font-specification:Droid Sans Bold;fill:#aa4400"
         id="path3899"
         inkscape:connector-curvature="0" />
      <path
         d="m 384.33658,527.08289 -29.60156,0 0,-51.39844 29.60156,0 0,8.92969 -18.70313,0 0,11.28515 17.40235,0 0,8.92969 -17.40235,0 0,13.25391 18.70313,0 0,9"
         style="font-size:72px;font-variant:normal;font-weight:bold;font-stretch:normal;line-height:0%;font-family:Droid Sans;-inkscape-font-specification:Droid Sans Bold;fill:#aa4400"
         id="path3901"
         inkscape:connector-curvature="0" />
      <path
         d="m 424.4147,527.08289 -3.51562,-12.23438 -17.71875,0 -3.55078,12.23438 -11.00391,0 16.69922,-51.60938 13.32422,0 16.76953,51.60938 -11.00391,0 m -6.04687,-21.375 -3.30469,-11.25 c -0.14065,-0.42185 -0.35159,-1.11325 -0.63281,-2.07422 -0.28128,-0.9609 -0.58596,-2.01559 -0.91406,-3.16407 -0.30472,-1.17183 -0.59768,-2.34371 -0.87891,-3.51562 -0.28127,-1.17183 -0.48049,-2.16793 -0.59766,-2.98828 -0.0938,0.51567 -0.22268,1.12504 -0.38672,1.82812 -0.14064,0.70317 -0.31642,1.45317 -0.52734,2.25 -0.18752,0.77348 -0.38674,1.55864 -0.59766,2.35547 -0.21095,0.79691 -0.41017,1.54691 -0.59765,2.25 -0.18752,0.70316 -0.3633,1.32426 -0.52735,1.86328 -0.14064,0.5391 -0.24611,0.93754 -0.3164,1.19532 l -3.26953,11.25 12.55078,0"
         style="font-size:72px;font-variant:normal;font-weight:bold;font-stretch:normal;line-height:0%;font-family:Droid Sans;-inkscape-font-specification:Droid Sans Bold;fill:#aa4400"
         id="path3903"
         inkscape:connector-curvature="0" />
      <path
         d="m 481.68423,500.89148 c -4e-5,4.33596 -0.5977,8.14455 -1.79296,11.42578 -1.17192,3.25782 -2.88286,5.98829 -5.13282,8.19141 -2.2266,2.17969 -4.96878,3.82031 -8.22656,4.92187 -3.2344,1.10157 -6.9258,1.65235 -11.07422,1.65235 l -13.53515,0 0,-51.39844 15.04687,0 c 3.77341,5e-5 7.17185,0.53911 10.19531,1.61719 3.04684,1.07817 5.6484,2.68364 7.80469,4.8164 2.15621,2.10942 3.80855,4.73442 4.95703,7.875 1.17183,3.14066 1.75777,6.77347 1.75781,10.89844 m -11.03906,0.28125 c -3e-5,-2.85935 -0.293,-5.32028 -0.8789,-7.38281 -0.56254,-2.08591 -1.39457,-3.80856 -2.4961,-5.16797 -1.07815,-1.35934 -2.41409,-2.36715 -4.00781,-3.02344 -1.57034,-0.65621 -3.37502,-0.98433 -5.41406,-0.98437 l -5.02735,0 0,33.46875 4.00782,0 c 4.59372,0 8.03903,-1.40624 10.33593,-4.21875 2.32028,-2.81249 3.48044,-7.04295 3.48047,-12.69141"
         style="font-size:72px;font-variant:normal;font-weight:bold;font-stretch:normal;line-height:0%;font-family:Droid Sans;-inkscape-font-specification:Droid Sans Bold;fill:#aa4400"
         id="path3905"
         inkscape:connector-curvature="0" />
    </g>
  </g>
  <g
     inkscape:groupmode="layer"
     id="layer3"
     inkscape:label="Layer">
    <path
       style="fill:#ff9955;stroke:#000000;stroke-width:8.09999999999999787;stroke-linecap:round;stroke-linejoin:round;stroke-opacity:1;stroke-miterlimit:4;stroke-dasharray:none"
       d="m 630.31951,445.17205 c 0,0 7.85714,-2.85714 16.78572,-12.85714 8.92857,-10 -42.14286,-5.35715 -43.92858,-6.78572 -1.78571,-1.42857 -29.28571,1.07143 -43.21428,1.42857 -13.92857,0.35715 0,0 -27.14286,-3.92857 -31.78571,3.57143 -28.92857,-3.92857 -33.57143,-5 -4.64285,-1.07143 -20,6.07143 -23.57143,7.85714 -3.57142,1.78572 -33.57143,1.42858 -37.5,0 -3.92857,-1.42857 -26.78571,3.92858 -26.78571,3.92858 0,0 -2.5,-3.57143 -25.35714,-0.35715 -22.85715,3.21429 -2.14286,0.71429 -23.06953,-3.20284 0,5.05076 -41.41625,4.04061 -64.64976,-3.03046 -23.23351,-7.07107 -52.52793,12.12183 -67.68022,9.09137 -15.15229,-3.03045 -43.43656,10.10153 -50.50763,6.06092 -7.07106,-4.04061 -53.53808,12.12183 -53.53808,12.12183 0,0 -14.14214,-3.03046 -48.487332,-21.2132 -5.99603,-22.32762 -6.71031,-21.25619 -6.71031,-21.25619 0,0 -9.28572,-36.78571 -3.92858,-40.35714 16.78572,-46.42857 18.92858,-56.78572 16.78572,-46.42857 0.71428,-5.71429 41.071432,-34.14286 41.071432,-34.14286 0,0 119.28571,-35.85714 122.85714,-32.28571 3.57143,3.57142 32.85715,-14.28572 45,-8.57143 44.19643,-0.44643 36.60715,-4.01786 44.19643,-0.44643 7.58929,3.57143 6.96429,2.85714 6.96429,2.85714 0,0 4.46428,-0.0893 6.33928,-2.14286 47.39043,0.18897 41.07697,-1.32626 45.49639,-0.18983 4.41942,1.13642 54.04316,-1.51523 51.39151,5.05076 74.89782,6.65693 61.32639,8.79979 73.1121,7.37122 11.78572,-1.42857 10.35715,3.57143 10.35715,3.57143 0,0 40.71428,3.57142 49.28571,9.28571 53.92857,19.28571 27.5,3.92857 53.92857,19.28571 26.42857,15.35715 39.64286,36.07143 39.64286,36.07143 0,0 19.28571,46.42857 8.21429,55 1.78571,11.78572 7.14285,8.21429 -0.35715,13.57143 -7.5,5.35714 -4.28571,33.21429 -11.07143,45 -6.78571,11.78572 -40.35714,4.64286 -40.35714,4.64286 z"
       id="path3051"
       inkscape:connector-curvature="0"
       sodipodi:nodetypes="ccssscsscscssscccc" />
    <g
       id="g3954"
       transform="matrix(0.35487322,0,0,0.35487322,6.2998911,52.246315)">
      <path
         style="fill:#ae98a3"
         d="m 401.51962,1016.0375 c -1.36421,-0.5476 -9.23921,-1.3827 -17.5,-1.8557 -14.51367,-0.8312 -21.98126,-2.1966 -37.86929,-6.9243 -19.91559,-5.9262 -53.51693,-30.78301 -65.64667,-48.56261 -8.51246,-12.47744 -19.62102,-34.23683 -22.0137,-43.12034 -1.04782,-3.89034 -2.40187,-8.37985 -3.00899,-9.9767 -4.74836,-12.48916 -5.82633,-46.34042 -2.12178,-66.63009 9.58578,-52.50086 43.49896,-94.55432 92.14081,-114.25763 10.36912,-4.20022 32.95919,-8.54261 44.5,-8.55404 7.05346,-0.007 32.97102,3.23789 43,5.38361 3.85,0.82372 13.075,3.57827 20.5,6.12123 22.22003,7.61006 33.147,14.50946 50.56128,31.92488 24.94362,24.94526 34.09723,39.97347 41.45629,68.06208 4.37032,16.68098 5.28764,25.08967 4.68467,42.94208 -1.07969,31.96659 -7.77399,53.86951 -23.7044,77.55792 -13.85035,20.59537 -44.41035,47.61854 -61.21606,54.13131 -2.90498,1.1257 -6.73189,2.6686 -8.50426,3.4284 -1.77236,0.7599 -10.45697,3.4358 -19.29913,5.9464 -16.81558,4.7746 -30.75196,6.4735 -35.95877,4.3835 z M 377.6038,962.85169 c -1.28349,-1.28349 -2.58505,-0.2915 -1.63484,1.24598 0.36808,0.59556 1.12735,0.79971 1.68727,0.45366 0.683,-0.42212 0.66575,-0.98146 -0.0524,-1.69964 z M 357.5,959.14789 c 0,-0.55 -0.47656,-1 -1.05902,-1 -0.58246,0 -0.7809,0.45 -0.44098,1 0.33992,0.55 0.81648,1 1.05902,1 0.24254,0 0.44098,-0.45 0.44098,-1 z m 6,0 c 0,-0.55 -0.675,-1 -1.5,-1 -0.825,0 -1.5,0.45 -1.5,1 0,0.55 0.675,1 1.5,1 0.825,0 1.5,-0.45 1.5,-1 z m 41.5,-7.10115 c 6.16469,0.29527 9.43643,-0.87523 11.02319,-3.9437 1.24026,-2.39839 2.17162,-2.95515 4.94347,-2.95515 1.87842,0 3.68773,-0.44078 4.02068,-0.97952 0.38458,-0.62226 1.27763,-0.5597 2.44853,0.17154 1.53857,0.96085 2.55538,0.58696 6.15327,-2.26262 2.37058,-1.87753 5.0919,-3.28125 6.0474,-3.11938 0.95549,0.16187 2.23148,-0.62916 2.83554,-1.75785 0.60406,-1.12869 1.5995,-2.05217 2.21208,-2.05217 1.59331,0 8.02922,-6.84573 7.39725,-7.86827 -0.29049,-0.47002 1.01842,-3.02988 2.90868,-5.68857 1.89026,-2.6587 3.71826,-6.1153 4.06222,-7.68135 0.47186,-2.14834 1.35806,-2.99388 3.60989,-3.44425 2.60006,-0.52001 2.90318,-0.92093 2.35316,-3.11237 -0.39859,-1.58811 -0.14913,-2.81515 0.67665,-3.32834 0.71939,-0.44708 1.30799,-2.06477 1.30799,-3.59486 0,-2.03576 0.46941,-2.74473 1.75,-2.6431 0.9625,0.0764 1.75,-0.48611 1.75,-1.25 0,-0.76389 -0.7875,-1.4032 -1.75,-1.42069 -1.60337,-0.0291 -1.59149,-0.1518 0.14181,-1.46394 1.0405,-0.78767 2.25131,-1.56086 2.69069,-1.7182 0.43939,-0.15733 1.52723,-6.81106 2.41743,-14.78606 1.21109,-10.84973 2.10475,-15.1789 3.54991,-17.19679 1.28383,-1.79264 1.56913,-2.92067 0.85095,-3.36452 -0.64902,-0.40112 -0.82492,-2.02958 -0.44053,-4.07853 0.4841,-2.58051 0.13037,-4.12633 -1.45313,-6.35014 -1.15114,-1.61664 -2.372,-5.29514 -2.71301,-8.17446 -0.34101,-2.87932 -1.21892,-6.38273 -1.95091,-7.78534 -0.73199,-1.40262 -1.33366,-3.65976 -1.33705,-5.01587 -0.004,-1.56748 -1.6281,-4.11739 -4.45873,-7 -2.44891,-2.49389 -6.08141,-7.68435 -8.07222,-11.53435 -3.39355,-6.56275 -9.81807,-14.5 -11.7365,-14.5 -0.9691,0 -9.75274,-6.65119 -16.11901,-12.20572 -7.45578,-6.50511 -11.48232,-7.61859 -30.12304,-8.3301 -21.61857,-0.82517 -25.42973,0.0372 -50.74933,11.4832 -3.71397,1.67894 -7.08897,3.05291 -7.5,3.05327 -0.41103,3.5e-4 -3.67233,2.7266 -7.24733,6.05833 -3.575,3.33173 -7.85,7.27678 -9.5,8.76677 -4.48493,4.05002 -11.10743,12.71759 -13.34932,17.47167 -8.89149,18.85503 -8.46094,17.4067 -9.27561,31.20258 -0.48056,8.13806 -0.38918,14.44023 0.24436,16.85094 0.55661,2.11802 0.80399,4.05897 0.54973,4.31323 -0.59035,0.59035 1.79671,10.8545 4.29223,18.45624 2.16546,6.5963 6.47593,15.57895 8.61759,17.95833 0.78156,0.86831 1.42921,1.99331 1.43922,2.5 0.0378,1.91557 6.28092,10.11964 11.52788,15.14884 2.99965,2.87517 5.45392,5.68163 5.45392,6.23658 0,0.55495 1.6875,1.71391 3.75,2.57547 2.0625,0.86156 4.875,2.61704 6.25,3.90107 1.375,1.28404 3.5589,2.65522 4.85312,3.04707 1.29422,0.39186 3.94345,1.79169 5.88718,3.11074 1.94374,1.31906 5.38071,2.89553 7.63771,3.50328 2.25701,0.60775 5.25668,1.92602 6.66593,2.9295 3.32634,2.36856 7.99713,2.85452 21.45606,2.23236 6.05,-0.27968 12.35,-0.44384 14,-0.3648 z m -22.5,-11.08912 c -1.925,-0.53146 -3.9275,-1.38107 -4.45,-1.88801 -0.5225,-0.50695 -2.64717,-0.92172 -4.72149,-0.92172 -4.2155,0 -13.59238,-3.78535 -15.70095,-6.33831 -0.75485,-0.91393 -1.96995,-1.66169 -2.70023,-1.66169 -0.73028,0 -2.99099,-1.98972 -5.0238,-4.42161 -2.0328,-2.43189 -4.52478,-4.63834 -5.53773,-4.90323 -1.01294,-0.26489 -2.28175,-1.639 -2.81957,-3.05357 -0.53782,-1.41456 -4.36824,-6.12061 -8.51204,-10.45789 -4.14381,-4.33727 -7.53419,-8.33775 -7.53419,-8.88996 0,-0.55221 -0.88055,-2.12346 -1.95678,-3.49167 -1.07623,-1.3682 -3.32711,-6.24241 -5.00194,-10.83158 -2.75993,-7.56239 -2.99704,-9.1451 -2.53134,-16.89722 0.2826,-4.7043 0.78239,-9.85068 1.11064,-11.43641 1.07464,-5.19143 2.34784,-0.64898 2.36411,8.4345 0.011,6.12713 0.71809,10.94646 2.49433,17 1.36346,4.64675 2.48846,9.23484 2.5,10.19576 0.0115,0.96091 1.53466,3.43591 3.38471,5.5 1.85004,2.06408 4.06451,5.12432 4.92103,6.80052 1.41447,2.76811 3.68099,5.19427 13.42116,14.36652 2.71768,2.55921 6.35738,4.94591 15.29408,10.02894 0.825,0.46924 3.3,1.51496 5.5,2.32382 14.7798,5.43399 19.85008,5.70568 34.56493,1.85215 6.36071,-1.66574 12.54274,-2.77292 13.73785,-2.46039 1.47178,0.38488 2.37797,0.0339 2.8084,-1.08782 0.34952,-0.91083 2.26749,-2.489 4.26215,-3.50705 1.99467,-1.01804 4.44359,-2.75431 5.44204,-3.85837 0.99845,-1.10406 3.3936,-2.30346 5.32256,-2.66534 2.70408,-0.50729 3.74197,-1.33143 4.53246,-3.59903 0.56389,-1.61759 1.44723,-2.94107 1.96297,-2.94107 0.51574,0 1.78807,-1.98381 2.8274,-4.40846 1.03933,-2.42466 2.60836,-4.81065 3.48673,-5.30221 4.99935,-2.79778 10.31019,-47.26803 6.49607,-54.39478 -0.66302,-1.23887 -1.77702,-4.75945 -2.47555,-7.82352 -1.71805,-7.53612 -3.64498,-12.39086 -5.75609,-14.50197 -0.9672,-0.9672 -2.40951,-3.01737 -3.20513,-4.55593 -0.79562,-1.53856 -3.14763,-4.1599 -5.22669,-5.82518 -2.07905,-1.66529 -6.19929,-5.28091 -9.15608,-8.03471 -3.11696,-2.90298 -9.20997,-6.91477 -14.5,-9.54718 -19.24076,-9.57451 -34.84536,-8.35551 -56.12402,4.38428 -2.75,1.64646 -5.9,3.40842 -7,3.91547 -1.1,0.50704 -4.54815,3.43567 -7.66256,6.50805 -3.11442,3.07237 -5.92692,5.58614 -6.25,5.58614 -2.58481,0 3.17553,-9.00188 7.10108,-11.0971 1.44564,-0.77159 3.93004,-2.61735 5.52088,-4.10167 1.59084,-1.48433 3.88202,-3.0084 5.09152,-3.38684 1.20949,-0.37843 3.41881,-1.70748 4.90959,-2.95343 5.88795,-4.92101 20.53062,-7.82697 39.78949,-7.89654 12.37605,-0.0447 12.58428,-0.007 21,3.77337 7.3218,3.28923 9.26236,4.72153 14,10.33322 3.025,3.58308 6.93848,7.14391 8.69661,7.91295 1.75814,0.76905 4.00814,2.56447 5,3.98984 0.99187,1.42537 3.02767,4.06122 4.52401,5.85744 2.83092,3.39827 6.77938,11.6641 6.77938,14.19216 0,0.80167 0.84979,2.67686 1.88842,4.16709 1.74581,2.5049 4.74237,16.91206 3.72844,17.92598 -0.24566,0.24566 0.18522,1.95892 0.9575,3.80725 1.25299,2.99884 1.20487,3.8255 -0.44702,7.67922 -1.06621,2.48735 -1.65625,5.64672 -1.39149,7.45067 0.26498,1.80544 -0.27131,4.67252 -1.26614,6.76898 -1.58482,3.33977 -1.5949,3.7816 -0.1233,5.40769 3.07526,3.39813 -0.91516,12.05284 -5.59641,12.13792 -1.92389,0.035 -2.52078,4.4374 -0.75,5.5318 1.77683,1.09814 1.06047,2.74907 -0.96323,2.21987 -1.07978,-0.28237 -2.48488,0.11514 -3.12245,0.88336 -0.63756,0.76823 -1.94901,1.39677 -2.91432,1.39677 -2.30374,0 -3.57115,1.72437 -4.37467,5.95193 -0.94442,4.96886 -7.25229,11.19336 -6.41917,6.33432 0.40748,-2.37651 -3.04156,-2.92336 -3.84831,-0.61016 -0.34986,1.00315 -2.41312,3.54788 -4.58504,5.65496 -3.04156,2.95075 -3.81693,4.35703 -3.37442,6.12014 0.51469,2.05068 0.13328,2.35814 -3.66193,2.95192 -2.33005,0.36455 -6.26146,0.79677 -8.73646,0.9605 -2.475,0.16372 -6.75,1.0086 -9.5,1.87752 -6.50415,2.0551 -16.08305,2.78805 -20.5,1.5686 z m -4.11621,-32.82531 c -2.53892,-0.42919 -5.91392,-1.52991 -7.5,-2.44604 -1.58609,-0.91613 -2.10177,-1.42827 -1.14597,-1.13809 8.84955,2.68668 22.18379,0.73635 32.118,-4.69774 6.06549,-3.31787 14.55228,-12.19594 18.31011,-19.15429 2.52517,-4.67584 4.49654,-15.50018 3.83338,-21.04826 -0.77653,-6.4966 -6.11384,-19.57666 -9.82577,-24.07989 -3.3408,-4.05297 -15.09446,-12.08943 -20.51074,-14.02403 -7.35068,-2.62554 -19.23739,-0.88657 -27.65346,4.04558 -4.60211,2.69701 -14.50934,12.93169 -14.50934,14.98889 0,1.65355 -5.98503,9.91776 -6.67956,9.22322 -0.88067,-0.88067 2.84699,-9.87301 5.88838,-14.20467 3.48806,-4.96783 13.05778,-13.38531 17.79118,-15.64903 13.46348,-6.43882 22.2597,-5.8495 34.61311,2.31898 2.81221,1.85952 6.49119,4.12828 8.17551,5.04169 7.35961,3.99111 16.96554,22.92264 17.2826,34.06082 0.23414,8.22565 -1.7518,18.28361 -4.59632,23.27844 -5.41711,9.51214 -19.11243,20.51979 -28.70809,23.07421 -5.71618,1.52168 -9.73095,1.61923 -16.88302,0.41021 z m -17.53146,-5.97773 c -1.18122,-0.47659 -2.44528,-1.34807 -2.80902,-1.93661 -1.11949,-1.81138 2.09904,-1.18345 4.59591,0.89665 2.49153,2.07565 1.79079,2.48347 -1.78689,1.03996 z m -8.06518,-5.65659 C 350.80782,895.69506 342.5,883.4545 342.5,881.34114 c 0,-1.0716 -0.71255,-2.53972 -1.58343,-3.26249 -2.71832,-2.256 -0.59014,-19.90563 2.82526,-23.43076 0.62742,-0.64758 0.72341,0.16416 0.27236,2.3033 -1.11058,5.26705 -0.92687,11.38018 0.47175,15.69809 3.07387,9.48981 5.52629,15.27682 8.17845,19.29874 3.56073,5.39975 3.57559,5.95064 0.12276,4.54997 z m 44.13776,-37.79326 c -0.74127,-2.95347 0.13946,-4.66124 2.0298,-3.93585 1.76596,0.67767 2.65058,2.94104 1.90692,4.87901 -0.89503,2.3324 -3.25661,1.7666 -3.93672,-0.94316 z M 327.5,826.14789 c 0.5887,-1.1 1.52037,-2 2.07037,-2 0.64321,0 0.6181,0.71358 -0.0704,2 -0.5887,1.1 -1.52037,2 -2.07037,2 -0.64321,0 -0.6181,-0.71358 0.0704,-2 z m 127.14583,121.22075 c -0.74479,-0.25128 -2.31979,0.5438 -3.5,1.76682 L 449,951.35914 l 3.5,-1.76682 c 2.1124,-1.06636 2.96313,-1.94795 2.14583,-2.22368 z M 338.5,945.55192 c 0,-2.37013 -2.18192,-2.66655 -4.26856,-0.57991 -1.74054,1.74053 -1.85985,2.31623 -0.75575,3.64658 1.19191,1.43617 1.47982,1.42704 3.16769,-0.10046 1.02114,-0.92412 1.85662,-2.25891 1.85662,-2.96621 z m 122.50555,-1.41016 c 0.99854,-1.10337 1.52104,-2.30061 1.16112,-2.66054 -0.72923,-0.72923 -4.66667,2.49524 -4.66667,3.82166 0,1.45986 1.61884,0.92367 3.50555,-1.16112 z M 327.5,935.14789 c 0,-0.55 -0.47656,-1 -1.05902,-1 -0.58246,0 -0.7809,0.45 -0.44098,1 0.33992,0.55 0.81648,1 1.05902,1 0.24254,0 0.44098,-0.45 0.44098,-1 z m -3.22917,-1.8125 c 0.21771,-0.65313 -0.31666,-1.1875 -1.1875,-1.1875 -0.87083,0 -1.58333,0.7125 -1.58333,1.58333 0,1.76593 2.15276,1.45839 2.77083,-0.39583 z m 147.97964,-1.9375 c 0.6122,-1.83866 -2.43058,-1.526 -3.13997,0.32265 -0.42084,1.09668 -0.1,1.475 1.06014,1.25 0.915,-0.17746 1.85092,-0.88515 2.07983,-1.57265 z M 322.5,929.05427 c 0,-0.60149 -0.84515,-1.31463 -1.8781,-1.58475 -1.03296,-0.27013 -2.37331,-1.578 -2.97856,-2.90638 -1.33405,-2.92791 -3.14334,-3.16693 -3.14334,-0.41525 0,1.1 0.38115,2 0.84699,2 0.46584,0 1.8847,0.9 3.15301,2 2.56981,2.22879 4,2.55286 4,0.90638 z m -7,-8.42625 c 0,-0.28593 -1.22632,-2.42343 -2.72515,-4.75 -1.49884,-2.32657 -3.51592,-5.94908 -4.48241,-8.05003 -0.96648,-2.10094 -2.72346,-5.02594 -3.90438,-6.5 l -2.14714,-2.6801 0.71467,7.5 c 0.79219,8.31353 1.66356,10 5.16685,10 1.8694,0 2.37756,0.53433 2.37756,2.5 0,2 0.5,2.5 2.5,2.5 1.375,0 2.5,-0.23394 2.5,-0.51987 z m 179,-22.48013 c 0,-2.26671 -1.03701,-2.56299 -2.8,-0.8 -1.76299,1.76299 -1.46671,2.8 0.8,2.8 1.33333,0 2,-0.66667 2,-2 z m -192.01531,-0.75 c -0.008,-0.4125 -0.45153,-1.425 -0.98469,-2.25 -0.78387,-1.21296 -0.97231,-1.06944 -0.98469,0.75 -0.008,1.2375 0.43469,2.25 0.98469,2.25 0.55,0 0.99311,-0.3375 0.98469,-0.75 z m -5.30452,-17.5 c -0.29515,-1.2375 -0.84586,-4.39303 -1.2238,-7.0123 -0.37793,-2.61926 -1.06264,-4.99436 -1.52158,-5.278 -0.95951,-0.59301 -2.80643,2.54455 -2.37832,4.0403 0.15742,0.55 0.57419,3.1375 0.92615,5.75 0.52695,3.91139 1.00135,4.75 2.68706,4.75 1.61529,0 1.93393,-0.47464 1.51049,-2.25 z m 199.34812,-1.28409 c 1.02313,-1.2328 1.02713,-1.99383 0.0204,-3.875 -0.95719,-1.78853 -0.98184,-2.84722 -0.10449,-4.48658 1.16834,-2.18313 0.69876,-4.10433 -1.00322,-4.10433 -0.51754,0 -0.94098,1.42707 -0.94098,3.17126 0,1.74419 -0.71087,3.95676 -1.5797,4.91681 -1.24285,1.37333 -1.34197,2.18978 -0.46482,3.82874 1.32725,2.48 2.35528,2.6186 4.07281,0.5491 z m -202.0436,-17.21591 c -0.0119,-2.14294 -0.22931,-2.41887 -0.98469,-1.25 -1.26441,1.95653 -1.26441,4 0,4 0.55,0 0.99311,-1.2375 0.98469,-2.75 z m 0.0153,-6.25 c 0,-0.55 -0.45,-1 -1,-1 -0.55,0 -1,0.45 -1,1 0,0.55 0.45,1 1,1 0.55,0 1,-0.45 1,-1 z m 203,-1 c 0,-0.55 -0.45,-1 -1,-1 -0.55,0 -1,0.45 -1,1 0,0.55 0.45,1 1,1 0.55,0 1,-0.45 1,-1 z m -202.46085,-8.75 c 0.36393,-2.6125 1.29151,-6.67823 2.06127,-9.03495 0.76977,-2.35672 1.39958,-4.8764 1.39958,-5.59929 0,-4.61546 13.73263,-25.16478 22.63623,-33.87255 2.67508,-2.61623 7.56377,-7.45365 10.86377,-10.74983 3.3,-3.29617 6.9,-6.27134 8,-6.61149 1.1,-0.34015 2.73603,-1.26339 3.63562,-2.05164 2.39537,-2.09893 15.72817,-8.33025 17.82374,-8.33025 0.98802,0 3.31385,-0.63276 5.16852,-1.40612 1.85466,-0.77337 7.64335,-2.1421 12.86374,-3.04162 5.22039,-0.89953 9.92789,-2.07177 10.46111,-2.60499 1.51785,-1.51785 -2.97824,-5.58471 -4.6482,-4.20445 -1.98949,1.64434 -8.80453,2.70359 -8.80453,1.36847 0,-1.90432 -3.8737,-1.21581 -5,0.88871 -0.5887,1.1 -1.84203,2.00677 -2.78518,2.01506 -1.99997,0.0176 -8.87103,2.30781 -9.84461,3.28139 -0.36692,0.36692 -1.67623,0.41386 -2.90957,0.10431 -1.23335,-0.30955 -2.5431,-0.0764 -2.91056,0.51821 -0.36746,0.59457 -1.42906,1.08514 -2.3591,1.09017 -3.24359,0.0175 -11.04994,4.55943 -15.48359,9.00866 -6.95144,6.97586 -8.94453,8.62714 -12.70067,10.52247 -4.56463,2.3033 -10.00665,6.67326 -10.00669,8.03542 -2e-5,0.59162 -1.12503,2.13256 -2.50003,3.42431 -1.375,1.29174 -2.5,2.89925 -2.5,3.57224 0,2.08231 -4.61209,9.46776 -6.92347,11.08671 -1.28273,0.89846 -2.10561,2.43064 -1.98117,3.6889 0.30712,3.10548 -1.1222,7.79293 -3.19092,10.46463 -2.6527,3.42589 -4.19501,8.92296 -3.36422,11.99063 0.40171,1.48329 0.63551,4.60939 0.51955,6.94689 -0.28735,5.79249 1.65744,5.4003 2.47938,-0.5 z M 295.5,806.02986 c 0,-0.55 -0.45,-0.72189 -1,-0.38197 -0.55,0.33992 -1,1.06803 -1,1.61803 0,0.55 0.45,0.72189 1,0.38197 0.55,-0.33992 1,-1.06803 1,-1.61803 z m 125.80521,-43.13197 c 0.23681,-1.21375 -0.29389,-1.75 -1.73189,-1.75 -1.14032,0 -2.07332,0.47829 -2.07332,1.06286 0,0.58457 -0.7875,0.98275 -1.75,0.88484 -3.45618,-0.35156 -6.35887,0.0671 -5.87649,0.84764 0.27036,0.43744 2.87626,0.77494 5.79091,0.75 4.22825,-0.0362 5.36836,-0.39905 5.64079,-1.79534 z M 406.5,763.05427 c 0,-0.60149 -0.9,-1.32898 -2,-1.61663 -1.1,-0.28766 -2,-0.86805 -2,-1.28975 0,-1.25867 -3.59163,-1.80804 -5.35797,-0.81955 -2.28134,1.27671 -2.04969,2.72014 0.60797,3.78839 3.18239,1.27916 8.75,1.23942 8.75,-0.0625 z m -61.18045,-4.73471 c 0.21221,-1.44221 -0.20766,-2.17167 -1.25,-2.17167 -1.02102,0 -1.56955,0.90283 -1.56955,2.58333 0,3.13272 2.34847,2.78984 2.81955,-0.41166 z m 24.90962,-7.77584 c -0.3323,-0.33229 -1.1948,-0.36782 -1.91667,-0.0789 -0.79773,0.31923 -0.56078,0.55619 0.60417,0.60417 1.05416,0.0434 1.64479,-0.19293 1.3125,-0.52522 z"
         id="path3960"
         inkscape:connector-curvature="0" />
      <path
         style="fill:#957986"
         d="m 401.5,1014.9564 c -1.375,-0.5421 -9.025,-1.2291 -17,-1.5268 -7.975,-0.2976 -14.9954,-0.9322 -15.60089,-1.4101 -0.60549,-0.478 -3.30549,-1.1434 -6,-1.4788 -20.04366,-2.495 -50.50385,-19.20321 -68.95146,-37.8217 -9.41179,-9.49898 -13.31774,-14.59093 -19.6125,-25.56768 -10.93887,-19.07511 -13.05648,-24.1634 -19.3535,-46.50343 -3.59979,-12.77103 -4.11881,-42.39287 -1.03378,-59 4.09418,-22.03955 8.88058,-35.5 12.62344,-35.5 2.57611,0 8.29862,-6.15361 11.1451,-11.98469 1.20408,-2.46659 4.59747,-6.74159 7.54087,-9.5 7.60899,-7.13079 10.58477,-11.3529 11.20331,-15.89554 0.39865,-2.92771 1.24447,-4.37357 3.24121,-5.54063 1.48599,-0.86853 4.69128,-4.31519 7.12287,-7.65926 4.23937,-5.83023 8.22729,-8.62208 15.5766,-10.90483 1.95963,-0.60867 2.28726,-0.44874 1.78139,0.86955 -0.95811,2.49679 1.45418,1.96001 6.64589,-1.47884 6.54163,-4.33299 6.37859,-6.60184 -0.23724,-3.30142 -4.12361,2.05712 -5.08689,1.08431 -2.08761,-2.10828 1.28971,-1.37283 1.92899,-2.49438 1.42061,-2.49232 -1.25124,0.005 -7.45548,3.77765 -9.92431,6.03464 -1.1,1.00562 -3.21596,2.28904 -4.70213,2.85206 -4.56406,1.72902 -2.27747,-1.4971 4.07749,-5.75288 18.43725,-12.34704 41.63312,-20.13073 64.9158,-21.78338 9.90691,-0.70322 32.9395,1.58599 47.70132,4.74102 18.10646,3.86988 39.86197,12.67995 52.43787,21.23515 17.07974,11.61909 41.90271,39.68538 51.0054,57.66965 4.71904,9.32346 10.30636,28.33887 13.11245,44.62578 1.77795,10.31948 0.70626,39.94679 -1.92323,53.1684 -4.42929,22.27136 -16.29929,45.68667 -32.11497,63.35146 -14.99534,16.74853 -38.22887,35.13537 -49.52706,39.19527 -2.74062,0.9849 -7.00794,2.6492 -9.48294,3.6986 -2.475,1.0494 -6.975,2.5437 -10,3.3207 -3.025,0.777 -10.225,2.7713 -16,4.4317 -11.00714,3.1649 -22.91266,4.0224 -28,2.0166 z m 9.23565,-16.79258 c 2.34539,-0.54124 5.46468,-1.21548 6.93175,-1.49832 3.49155,-0.67314 7.83818,-7.24142 5.72703,-8.65421 -0.76694,-0.51324 -3.19443,-0.61676 -5.39443,-0.23005 -7.55133,1.32734 -24.01133,1.21111 -36,-0.25421 -10.24655,-1.25239 -13.19399,-2.04614 -20.17127,-5.43218 -4.4942,-2.181 -9.6692,-4.25126 -11.5,-4.60057 -4.03024,-0.76894 -10.19761,-3.72709 -14.51201,-6.96061 -1.7508,-1.31218 -3.82624,-2.38578 -4.61208,-2.38578 -1.33786,0 -6.89088,-4.00792 -14.08698,-10.16736 -4.85872,-4.15877 -2.29404,-4.49653 3.08001,-0.40563 6.45513,4.91385 16.60242,11.56766 17.6456,11.57061 0.4638,0.001 4.48694,1.83965 8.94031,4.0852 13.61495,6.86515 23.46482,9.62224 39.21642,10.97711 22.23019,1.91212 40.0167,0.21406 51.83291,-4.94844 2.65809,-1.16132 5.48852,-2.11149 6.28983,-2.11149 3.99406,0 18.37726,-11.00316 18.37726,-14.05862 0,-1.0754 6.38311,-4.38918 10.23978,-5.31597 2.69924,-0.64864 10.04213,-8.78756 11.18947,-12.40249 0.30756,-0.96904 2.1368,-2.61149 4.06498,-3.64988 1.92817,-1.03839 3.50577,-2.23085 3.50577,-2.64992 0,-0.41907 2.17644,-3.16071 4.83652,-6.09253 5.19801,-5.729 11.17546,-15.85759 13.17853,-22.33059 0.68079,-2.2 1.82336,-4.675 2.53903,-5.5 1.5034,-1.73306 4.60666,-10.33136 5.05282,-14 0.27661,-2.27449 0.55305,-3.78084 1.97283,-10.75 0.63571,-3.12046 3.42027,-2.91693 3.42027,0.25 0,1.81678 0.53593,2.5 1.96104,2.5 4.18288,0 7.73219,-6.90677 4.96918,-9.66978 -1.60534,-1.60534 -1.82161,-13.10924 -0.28447,-15.1319 0.70985,-0.93408 1.30495,-4.38142 1.32245,-7.66076 0.0281,-5.27098 -0.2755,-6.20746 -2.61804,-8.07534 -2.40874,-1.92066 -2.63619,-2.69746 -2.49981,-8.53756 0.18573,-7.95349 -1.30142,-11.12814 -5.62738,-12.01289 -1.79123,-0.36635 -3.48704,-0.29351 -3.76848,0.16187 -0.28144,0.45537 0.42315,3.43759 1.56574,6.62715 3.20036,8.93388 3.99892,12.68006 2.93065,13.74833 -1.57816,1.57816 -2.78031,-0.52944 -4.83387,-8.47468 -1.90503,-7.37056 -9.04101,-26.1059 -11.79765,-30.97444 -0.77855,-1.375 -1.88792,-3.7375 -2.46528,-5.25 -0.57735,-1.5125 -1.37992,-2.75 -1.78349,-2.75 -0.40357,0 -2.16147,-2.20333 -3.90644,-4.89628 -1.74497,-2.69295 -4.97076,-7.0722 -7.16841,-9.73167 -2.19766,-2.65946 -3.99574,-5.40614 -3.99574,-6.10372 0,-0.69758 -0.57598,-1.26833 -1.27995,-1.26833 -0.70398,0 -2.80619,-1.61809 -4.67157,-3.59576 -1.86539,-1.97767 -5.22691,-4.73671 -7.47005,-6.1312 -2.24314,-1.39449 -5.87843,-3.98157 -8.07843,-5.74906 -2.2,-1.76749 -5.33759,-3.65431 -6.97242,-4.19294 -1.75998,-0.57986 -3.18761,-1.87369 -3.5,-3.17199 -0.29017,-1.20596 -1.81652,-2.8601 -3.39189,-3.67586 -3.61554,-1.8722 -4.63569,-1.8685 -4.63569,0.0168 0,2.00604 0.52326,2.10875 -10.5,-2.06098 -1.1,-0.4161 -2.42572,-0.65569 -2.94604,-0.53243 -0.52032,0.12325 -4.79532,-0.48805 -9.5,-1.35845 -4.70468,-0.87041 -12.37896,-1.91231 -17.05396,-2.31535 -6.46569,-0.55741 -8.53223,-1.09179 -8.63465,-2.23279 -0.0741,-0.825 -0.19656,-1.95 -0.27224,-2.5 -0.0757,-0.55 -0.91508,-0.0315 -1.86535,1.15229 -1.35198,1.68419 -3.55665,2.39104 -10.13676,3.25 -10.34394,1.35029 -13.091,1.37738 -13.091,0.12909 0,-0.53273 0.68073,-0.70739 1.51273,-0.38812 0.83201,0.31927 2.06951,0.12226 2.75,-0.4378 0.6805,-0.56006 3.48727,-1.31899 6.23727,-1.68652 2.75,-0.36753 5.66239,-0.88386 6.47197,-1.14739 2.81643,-0.91677 -1.16777,-2.34002 -6.59602,-2.35624 -5.51251,-0.0165 -14.37595,3.96839 -14.37595,6.4632 0,1.2692 -2.08801,2.52149 -4.20423,2.52149 -0.64402,0 -0.58004,-0.55502 0.16788,-1.4562 3.91284,-4.71469 -7.20299,-4.43117 -14.96365,0.38166 -0.825,0.51163 -2.175,1.18484 -3,1.49602 -0.825,0.31119 -2.175,0.96581 -3,1.45473 -0.825,0.48892 -3.72245,1.41277 -6.43878,2.05302 -3.29444,0.7765 -6.32615,2.4429 -9.10571,5.00502 -2.29182,2.11252 -5.24437,4.41072 -6.56122,5.10711 -2.85502,1.50982 -26.35617,24.96053 -30.02307,29.95864 -1.41229,1.925 -3.12097,5.1875 -3.79706,7.25 -0.6761,2.0625 -1.58065,3.75 -2.01013,3.75 -0.42948,0 -2.46148,2.53117 -4.51555,5.62483 -2.71365,4.08706 -3.97299,7.29939 -4.60638,11.75 -0.47943,3.36884 -1.7749,7.98977 -2.87881,10.26872 -2.56014,5.28526 -4.33218,13.14898 -3.61075,16.02336 0.3076,1.22561 -0.19044,4.38944 -1.10676,7.03073 -1.15434,3.32737 -1.69003,8.33446 -1.74413,16.30236 -0.068,10.0105 0.25652,12.40665 2.50523,18.5 1.42082,3.85 3.60688,11.5 4.85791,17 2.7639,12.15109 2.38529,11.14496 9.97189,26.5 7.21333,14.59956 8.13765,16.22794 9.82294,17.30507 0.69279,0.44279 2.35983,1.90529 3.70454,3.25 1.34471,1.34471 2.87094,2.44493 3.39161,2.44493 0.52067,0 1.8624,1.55203 2.98161,3.44896 1.11922,1.89693 3.62453,4.48443 5.56736,5.75 1.94283,1.26557 4.30301,3.72477 5.24484,5.46488 1.09704,2.02686 3.49033,3.99657 6.65976,5.48105 2.72103,1.27446 5.58617,3.2922 6.36698,4.48387 0.78081,1.19166 2.91128,2.44649 4.73438,2.78851 1.8231,0.34201 4.164,1.57553 5.20201,2.74115 2.27919,2.55938 23.41807,12.84158 26.40065,12.84158 1.16497,0 3.0173,0.48123 4.1163,1.06939 1.45473,0.77855 2.38876,0.74525 3.43426,-0.12244 1.12047,-0.92991 1.80003,-0.89022 3.09212,0.18061 0.98467,0.81605 4.53194,1.46769 8.75,1.6074 13.28109,0.43988 17.09185,0.82542 19.59396,1.98233 3.17831,1.46957 4.04072,1.49746 9.23565,0.29864 z m -28.79452,-21.57673 c -1.78562,-1.43577 -1.3403,-1.50578 5.55887,-0.87388 9.12606,0.83586 8.23689,0.86683 15.28961,-0.53256 3.18429,-0.63182 7.45929,-1.00778 9.5,-0.83547 2.99251,0.25268 1.96908,0.65126 -5.28961,2.06004 -11.4807,2.2282 -22.4152,2.30756 -25.05887,0.18187 z m 35.9323,-3.2344 c 0.91514,-1.48073 4.81226,-2.26467 4.35535,-0.87611 -0.21199,0.64422 -1.41263,1.32165 -2.6681,1.50541 -1.28107,0.1875 -2.02141,-0.0886 -1.68725,-0.6293 z m 8.62657,-2.2048 c 0,-0.55 0.70156,-1 1.55902,-1 0.85746,0 1.2809,0.45 0.94098,1 -0.33992,0.55 -1.04148,1 -1.55902,1 -0.51754,0 -0.94098,-0.45 -0.94098,-1 z m 6.71788,-2.05548 c 1.30669,-1.37365 8.45432,-4.10565 9.08677,-3.4732 0.4794,0.4794 -4.48549,3.03314 -7.80465,4.01439 -2.01242,0.59493 -2.26247,0.48938 -1.28212,-0.54119 z m 16.26865,-7.74697 c 13.52572,-9.23399 32.84196,-29.25444 39.68444,-41.13122 2.03862,-3.53851 3.88604,-5.89529 4.10538,-5.23728 0.21934,0.65801 -0.87811,3.26826 -2.43878,5.80057 -1.56066,2.5323 -3.96257,6.68908 -5.33757,9.23728 -3.68609,6.8312 -24.18554,26.69317 -31.20927,30.23874 -6.32882,3.19478 -8.66078,3.72479 -4.8042,1.09191 z m -115.84731,-5.23082 c -1.29844,-1.0817 -2.06359,-1.96673 -1.70034,-1.96673 1.00534,0 6.56112,2.98545 6.56112,3.52568 0,1.11699 -2.68072,0.25723 -4.86078,-1.55895 z m -27.24955,-10.21673 c -1.17436,-2.23794 -1.16919,-2.23979 0.96482,-0.34501 2.38354,2.11633 2.60133,2.59501 1.18069,2.59501 -0.53064,0 -1.49612,-1.0125 -2.14551,-2.25 z m 9.777,-3.41667 c -0.36667,-0.36666 -0.66667,-1.13166 -0.66667,-1.7 0,-0.6266 0.46577,-0.56756 1.18333,0.15 0.65084,0.65084 0.95084,1.41584 0.66667,1.7 -0.28417,0.28417 -0.81667,0.21667 -1.18333,-0.15 z M 297.48075,935.972 c -3.60567,-4.78388 -6.99164,-10.82411 -6.06766,-10.82411 1.20716,0 9.29174,11.88552 8.89472,13.07656 -0.19047,0.57141 -1.46265,-0.44219 -2.82706,-2.25245 z M 494.5318,910.02033 c -0.0175,-0.89515 0.6432,-2.18775 1.4682,-2.87244 1.92255,-1.59557 1.94278,0.0323 0.0318,2.55887 -1.23344,1.63076 -1.47328,1.68089 -1.5,0.31357 z m -19.01649,-5.56342 c 0.008,-0.44496 0.45153,-1.48402 0.98469,-2.30902 0.8354,-1.29269 0.97149,-1.26629 0.98469,0.19098 0.008,0.93004 -0.43469,1.9691 -0.98469,2.30902 -0.55,0.33992 -0.99311,0.25398 -0.98469,-0.19098 z M 279.5,898.64789 c 0,-0.825 0.17685,-1.5 0.39301,-1.5 0.21616,0 0.65203,0.675 0.96862,1.5 0.31658,0.825 0.13972,1.5 -0.39302,1.5 -0.53273,0 -0.96861,-0.675 -0.96861,-1.5 z m -0.92105,-8.08333 c 0.048,-1.16495 0.28494,-1.4019 0.60416,-0.60417 0.28888,0.72187 0.25335,1.58437 -0.079,1.91667 -0.33229,0.33229 -0.56864,-0.25834 -0.52522,-1.3125 z m 204.77583,-22.41667 c -0.61696,-3.49566 -0.36128,-4.83983 0.71575,-3.7628 0.31379,0.31379 0.4201,2.07629 0.23625,3.91666 l -0.33428,3.34614 -0.61772,-3.5 z m 36.78196,-1.50425 c -0.96758,-2.52149 -0.76052,-17.49575 0.24194,-17.49575 3.01235,0 4.71089,14.8374 2.00806,17.54123 -1.48458,1.48513 -1.66404,1.48151 -2.25,-0.0455 z m -28.44477,-52.82165 c -1.20559,-2.57075 -3.09769,-6.60584 -4.20468,-8.96686 -1.10699,-2.36102 -4.96574,-8.02727 -8.57499,-12.59168 -3.60925,-4.56441 -6.38322,-8.47797 -6.16438,-8.69681 1.43391,-1.43391 16.27857,19.03936 19.49755,26.89037 2.92191,7.12646 2.4775,9.82823 -0.5535,3.36498 z M 293.5,791.89278 c 0,-0.825 0.675,-2.0602 1.5,-2.74489 1.21995,-1.01247 1.5,-0.96484 1.5,0.25511 0,0.825 -0.675,2.0602 -1.5,2.74489 -1.21995,1.01247 -1.5,0.96484 -1.5,-0.25511 z m 16,-18.38349 c 0,-1.28679 4.82559,-5.86914 5.48563,-5.20911 0.27143,0.27143 -0.8518,1.7824 -2.49606,3.3577 -1.64426,1.57531 -2.98957,2.40844 -2.98957,1.85141 z m 25.5,-19.3614 c 0.33992,-0.55 1.06803,-1 1.61803,-1 0.55,0 0.72189,0.45 0.38197,1 -0.33992,0.55 -1.06803,1 -1.61803,1 -0.55,0 -0.72189,-0.45 -0.38197,-1 z m 12.5,-5.83949 c 0,-1.19322 4.6839,-3.17432 7.29705,-3.08635 1.68777,0.0568 1.2675,0.5072 -1.79705,1.92584 -4.61112,2.13457 -5.5,2.32213 -5.5,1.16051 z m 91.57508,238.69431 1.62643,-3.14519 -4.18334,0.56111 c -4.42028,0.59288 -6.35606,1.70382 -4.26817,2.4495 0.6875,0.24553 1.25,1.08393 1.25,1.86309 0,2.70597 3.90858,1.49415 5.57508,-1.72851 z m 98.10803,-142.04232 c -0.31922,-0.79773 -0.55618,-0.56078 -0.60416,0.60417 -0.0434,1.05416 0.19293,1.64479 0.52522,1.3125 0.33229,-0.3323 0.36781,-1.1948 0.0789,-1.91667 z m 1.69276,-6.58126 c -2.75575,-4.376 -5.75475,-1.67622 -3.27825,2.95117 1.01606,1.89852 1.21915,1.9294 2.73305,0.41549 1.25626,-1.25626 1.38266,-2.03681 0.5452,-3.36666 z m -24.10151,-30.14216 c -0.51191,-5.64541 -0.89222,-6.536 -3.40439,-7.97223 -1.55546,-0.88927 -3.30069,-2.75432 -3.87829,-4.14457 -0.5776,-1.39025 -1.93702,-3.08156 -3.02093,-3.75847 -1.71238,-1.06941 -1.97075,-0.97062 -1.97075,0.75355 0,1.09136 0.89832,3.45768 1.99626,5.25847 1.09795,1.80079 1.99795,4.63654 2,6.30166 0.004,3.03888 1.56008,6.01588 5.3567,10.24648 2.81874,3.14094 3.64163,1.25796 2.9214,-6.68489 z M 502.425,786.37578 c -0.52556,-1.50034 -2.33515,-3.51539 -4.02132,-4.47789 -6.11746,-3.49198 -6.50472,-1.81701 -0.96679,4.18163 4.29375,4.65098 6.56068,4.78562 4.98811,0.29626 z M 488.5,761.70691 c 0,-0.24254 -0.45,-0.7191 -1,-1.05902 -0.55,-0.33992 -1,-0.14148 -1,0.44098 0,0.58246 0.45,1.05902 1,1.05902 0.55,0 1,-0.19844 1,-0.44098 z M 466,754.14789 c -0.33992,-0.55 -1.15398,-0.99311 -1.80902,-0.98469 -0.71561,0.009 -0.59227,0.40223 0.30902,0.98469 1.92112,1.24152 2.2673,1.24152 1.5,0 z m -146,-4 c 0.33992,-0.55 0.14148,-1 -0.44098,-1 -0.58246,0 -1.05902,0.45 -1.05902,1 0,0.55 0.19844,1 0.44098,1 0.24254,0 0.7191,-0.45 1.05902,-1 z m 101.05887,-12.5318 c -2.14465,-1.62214 -6.55887,-1.99333 -6.55887,-0.55153 0,1.23802 1.88994,1.91585 5.5,1.97258 2.85004,0.0448 2.90297,-0.0262 1.05887,-1.42105 z m -87.06595,-2.45675 c 0.35034,-0.56686 -0.0511,-0.7345 -0.94098,-0.39301 -1.73242,0.66479 -2.04939,1.38156 -0.61096,1.38156 0.51754,0 1.21592,-0.44485 1.55194,-0.98855 z m 13.03354,-0.81832 c -0.30789,-0.30789 -1.11479,-6.4e-4 -1.79313,0.68278 -0.98026,0.98762 -0.8654,1.10248 0.5598,0.5598 0.98622,-0.37553 1.54122,-0.93469 1.23333,-1.24258 z m -8.79729,-0.7973 c -0.3323,-0.33229 -1.1948,-0.36782 -1.91667,-0.0789 -0.79773,0.31923 -0.56078,0.55619 0.60417,0.60417 1.05416,0.0434 1.64479,-0.19293 1.3125,-0.52522 z m -68.6959,62.30451 c -0.0445,-1.0688 2.89085,-6.70034 3.49241,-6.70034 0.26088,0 0.47432,0.62515 0.47432,1.38922 0,1.46009 -3.90919,6.69418 -3.96673,5.31112 z m 8.99833,-15.13858 c -0.1229,-3.64888 25.43379,-31.56176 28.89755,-31.56176 1.98467,0 1.09112,1.8327 -2.03504,4.17394 -5.19545,3.89097 -9.11826,8.18037 -10.12945,11.07606 -0.63822,1.82766 -1.68215,2.7627 -3.11249,2.78786 -1.35566,0.0239 -3.44751,1.73561 -5.65217,4.62519 -5.45942,7.15549 -7.93403,9.91901 -7.9684,8.89871 z"
         id="path3958"
         inkscape:connector-curvature="0" />
      <path
         style="fill:#63464d"
         d="m 403.25753,1014.5721 c -0.91332,-0.9133 -7.29129,-1.5387 -20.74218,-2.0339 -12.76383,-0.4699 -15.87432,-1.3251 -12.12271,-3.3329 1.15905,-0.6203 2.10736,-1.4596 2.10736,-1.8652 0,-1.1086 -6.05804,-4.0994 -9.75,-4.8136 -4.32358,-0.8363 -4.11672,0.6474 0.43521,3.1214 2.02389,1.1 3.85028,2.5328 4.05865,3.1841 0.61012,1.9068 -10.45578,0.3331 -16.52237,-2.3498 -2.90319,-1.2839 -6.21238,-2.3343 -7.35377,-2.3343 -2.91571,0 -14.36076,-6.10428 -27.86772,-14.86339 -13.34759,-8.65576 -30.3496,-25.11464 -35.89068,-34.74415 -1.86488,-3.24086 -4.74738,-8.14247 -6.40557,-10.89247 -5.1308,-8.50913 -11.73105,-22.50958 -13.14282,-27.87858 -0.74067,-2.81678 -2.28229,-8.04642 -3.42582,-11.62142 -2.52869,-7.90541 -4.0568,-20.2748 -4.07681,-33 -0.0144,-9.15124 1.41346,-25.62873 2.53465,-29.25 1.22796,-3.9661 1.9181,-1.17995 2.10535,8.49936 0.39148,20.23673 1.09414,29.32329 2.60992,33.75064 0.84736,2.475 1.86012,7.15647 2.25059,10.40326 1.13332,9.42382 5.92349,20.07904 11.56126,25.71681 1.00243,1.00243 1.46094,2.62092 1.17147,4.13518 -0.62484,3.26863 2.14235,8.5564 6.29902,12.03669 2.06046,1.72517 3.57469,4.07198 3.96304,6.14208 0.35856,1.91127 2.09262,4.76922 4.03744,6.65422 1.87493,1.81725 3.423,4.00332 3.44017,4.85793 0.0849,4.2284 5.37195,10.06559 14.51476,16.02516 1.67528,1.092 4.04576,3.33775 5.26773,4.99055 1.22197,1.6528 3.67628,3.74993 5.45403,4.66028 1.77775,0.91035 4.71043,2.94278 6.51707,4.51651 1.80663,1.57373 3.88345,2.86133 4.61514,2.86133 0.73169,0 2.47451,0.9 3.87293,2 1.41062,1.1096 4.05678,2 5.94373,2 3.96368,0 8.26695,2.51463 5.7834,3.37954 -0.825,0.28732 -2.58975,0.65696 -3.92167,0.82142 -7.11814,0.87897 0.38851,7.35615 9.37736,8.09125 7.62323,0.6235 9.20383,0.094 6.99735,-2.3441 -1.0539,-1.16455 -1.39051,-2.56975 -0.94889,-3.96119 0.55073,-1.7352 1.20315,-2.03547 3.34013,-1.53723 4.72003,1.10047 8.14418,2.75997 7.57963,3.67343 -0.84857,1.37299 2.43497,2.23889 3.89505,1.02709 1.92046,-1.5938 20.64046,0.5735 22.99209,2.6619 1.57126,1.3954 1.93067,1.415 2.71452,0.1481 0.67358,-1.0886 3.13903,-1.4831 9.68895,-1.5503 8.03232,-0.082 24.16907,-3.10698 28.28548,-5.30165 0.825,-0.43985 7.35,-3.86206 14.5,-7.60491 12.61312,-6.60266 17.76007,-9.93764 24,-15.55087 1.65,-1.48428 4.30209,-3.00558 5.89353,-3.38066 1.60627,-0.37858 5.95074,-3.66038 9.76559,-7.3769 3.77964,-3.6822 9.08262,-8.71992 11.78441,-11.19492 2.70178,-2.475 5.67524,-6.075 6.60767,-8 0.93244,-1.925 3.0047,-4.55672 4.60502,-5.84826 2.8358,-2.28864 6.84848,-9.12054 8.31197,-14.15174 0.39996,-1.375 2.47197,-6.90688 4.60447,-12.29306 3.21295,-8.11515 3.77332,-10.55149 3.27056,-14.21955 -0.50557,-3.68851 -10e-4,-5.83591 3.02503,-12.88037 1.99746,-4.64964 3.63175,-9.38834 3.63175,-10.53045 0,-1.14211 0.45,-2.07657 1,-2.07657 1.24769,0 1.29372,3.16429 0.0902,6.20295 -0.50038,1.26338 -1.41276,5.67205 -2.02752,9.79705 -0.61476,4.125 -1.54873,9.94414 -2.07548,12.93141 -0.52676,2.98728 -0.70258,5.68657 -0.39072,5.99843 0.97822,0.97822 3.40303,-3.19258 3.41326,-5.87097 0.005,-1.40738 1.14242,-4.99205 2.52677,-7.96594 2.04937,-4.4025 2.46587,-6.66324 2.24185,-12.16841 -0.23761,-5.83903 0.0558,-7.20893 2.15069,-10.04246 2.66049,-3.59851 2.80824,-5.6869 1.6188,-22.88206 -0.44568,-6.44311 -1.29331,-10.73613 -2.63419,-13.34158 -1.08738,-2.11287 -2.24569,-5.80151 -2.57403,-8.19699 -0.32834,-2.39548 -1.53354,-5.84177 -2.67822,-7.65843 -1.14469,-1.81665 -2.61728,-5.103 -3.27243,-7.303 -2.93453,-9.85415 -5.84124,-15.13265 -9.66292,-17.54755 -2.0904,-1.32092 -4.04941,-3.39248 -4.35335,-4.60347 -0.30394,-1.21098 -1.40486,-2.97306 -2.4465,-3.91573 -1.30864,-1.18431 -1.70613,-2.46206 -1.28629,-4.13485 0.47588,-1.89605 0.15436,-2.53943 -1.48305,-2.96762 -1.14986,-0.3007 -2.35795,-1.38887 -2.68463,-2.41816 -0.32669,-1.02929 -1.95965,-2.66821 -3.62881,-3.64203 -1.66916,-0.97383 -4.00428,-3.65586 -5.18915,-5.96008 -2.22648,-4.3299 -9.72862,-10.82394 -20.28215,-17.55674 -3.22967,-2.06043 -7.67213,-5.07491 -9.87213,-6.69885 -5.71854,-4.22116 -17.7456,-8.79765 -33.11808,-12.60196 -7.32558,-1.8129 -13.79489,-3.59016 -14.37625,-3.94945 -0.58135,-0.3593 -5.65795,-0.82058 -11.28134,-1.02507 -5.62338,-0.20449 -13.4145,-0.97391 -17.3136,-1.70983 -5.96816,-1.12643 -8.10308,-1.11957 -13.5,0.0434 -3.5259,0.75978 -9.43539,1.49715 -13.13219,1.63858 -3.69681,0.14144 -7.36431,0.79068 -8.15002,1.44275 -1.5001,1.24498 -13.53904,3.52948 -14.34619,2.72233 -0.90908,-0.90908 5.97283,-3.77446 12.5539,-5.22699 22.55462,-4.97813 31.10337,-5.3481 54.61538,-2.36364 19.52528,2.47841 24.5772,3.62742 40.73323,9.26436 23.81738,8.31004 40.27883,19.94435 60.19539,42.54377 18.81312,21.34734 25.1887,34.17334 32.14473,64.66684 2.4386,10.69023 2.73697,13.96465 2.7336,30 -0.006,26.39959 -4.09879,44.96154 -14.55192,65.98979 -9.72931,19.57216 -33.92463,46.15763 -54.97163,60.40202 -5.96192,4.03496 -16.10602,9.10819 -18.21217,9.10819 -0.87413,0 -3.71187,1.0695 -6.30608,2.3768 -2.59422,1.3072 -6.29176,2.7028 -8.21676,3.1014 -1.925,0.3985 -8.71555,2.254 -15.0901,4.1232 -8.91675,2.6147 -13.43381,3.3986 -19.58334,3.3986 -4.39627,0 -8.25234,-0.2591 -8.56903,-0.5758 z m 10.65969,-4.5217 c 1.46766,-1.3392 -2.37703,-2.3032 -5.20252,-1.3044 -4.25328,1.5036 -3.92844,3.3857 0.46936,2.7195 2.09877,-0.318 4.22869,-0.9547 4.73316,-1.4151 z M 431,1000.1479 c 0.33992,-0.55001 -0.0835,-1.00001 -0.94098,-1.00001 -0.85746,0 -1.55902,0.45 -1.55902,1.00001 0,0.55 0.42344,1 0.94098,1 0.51754,0 1.2191,-0.45 1.55902,-1 z m -95,-5.00001 c 0.33992,-0.55 -0.11008,-1 -1,-1 -0.88992,0 -1.33992,0.45 -1,1 0.33992,0.55 0.78992,1 1,1 0.21008,0 0.66008,-0.45 1,-1 z m -11.77083,-6.60417 c -0.33229,-0.33229 -1.1948,-0.36781 -1.91667,-0.0789 -0.79773,0.31922 -0.56078,0.55618 0.60417,0.60416 1.05416,0.0434 1.64479,-0.19293 1.3125,-0.52522 z m 206.64068,-71.89583 c 0.32147,-1.1 0.13621,-2.675 -0.41168,-3.5 -0.86181,-1.29767 -1.19594,-1.23817 -2.47717,0.44113 -1.5494,2.03078 -1.97267,5.73386 -0.79052,6.91601 0.88001,0.88002 2.9199,-1.25844 3.67937,-3.85714 z m 3.25515,-52.29775 c -0.27117,-0.43876 -0.0796,-1.45126 0.42567,-2.25 0.71729,-1.13385 0.92206,-0.95896 0.93402,0.79775 0.0157,2.31303 -0.49232,2.85568 -1.35969,1.45225 z M 256.93947,832.68829 c 0.63862,-5.4634 2.10344,-7.89514 3.13559,-5.20538 0.82966,2.16204 -0.0661,5.64173 -2.10176,8.16498 -1.52366,1.88858 -1.58125,1.72369 -1.03383,-2.9596 z m 3.65072,-13.32252 c -0.16832,-4.25905 3.88661,-11.57442 5.51378,-9.94724 0.66463,0.66463 -1.75389,5.72936 -2.73589,5.72936 -0.44599,0 -1.23318,1.4625 -1.7493,3.25 -0.7382,2.55662 -0.95765,2.76312 -1.02859,0.96788 z m 259.2106,-11.44371 c -0.54132,-0.7008 -1.761,-3.29917 -2.71041,-5.77417 -0.9494,-2.475 -2.88748,-6.19565 -4.30684,-8.26811 -1.41936,-2.07247 -2.25802,-4.09074 -1.8637,-4.48506 1.15051,-1.15051 4.27151,3.67825 7.54297,11.67037 2.93231,7.16356 3.39113,9.51499 1.33798,6.85697 z M 292,764.14789 c 0.33992,-0.55 0.81648,-1 1.05902,-1 0.24254,0 0.44098,0.45 0.44098,1 0,0.55 -0.47656,1 -1.05902,1 -0.58246,0 -0.7809,-0.45 -0.44098,-1 z m 46.5,-33.89301 c 0,-0.49116 0.7118,-1.16616 1.58179,-1.5 2.44628,-0.93873 2.7695,-0.7352 1.41821,0.89301 -1.37965,1.66238 -3,1.99022 -3,0.60699 z"
         id="path3956"
         inkscape:connector-curvature="0" />
    </g>
    <text
       xml:space="preserve"
       style="font-size:45.41260909999999740px;font-style:normal;font-variant:normal;font-weight:normal;font-stretch:normal;line-height:125%;letter-spacing:0px;word-spacing:0px;fill:#552200;fill-opacity:1;stroke:none;font-family:Roboto;-inkscape-font-specification:Roboto"
       x="205.63695"
       y="327.73434"
       id="text3926"
       sodipodi:linespacing="125%"><tspan
         sodipodi:role="line"
         x="205.63695"
         y="327.73434"
         id="tspan3970">Version 0.1</tspan><tspan
         sodipodi:role="line"
         x="205.63695"
         y="384.50009"
         id="tspan3974">Optimisic Onion</tspan></text>
  </g>
</svg>
